<svg width="19" height="18" viewBox="0 0 19 18" fill="none" xmlns="http://www.w3.org/2000/svg">
<g id="24px / plus">
<path id="Union" fill-rule="evenodd" clip-rule="evenodd" d="M4.5739 7.96156C4.12047 7.96156 3.75288 8.32914 3.75289 8.78258C3.75289 9.23601 4.12047 9.6036 4.57391 9.6036L8.6789 9.6036L8.67891 13.7088C8.67891 14.1622 9.04649 14.5298 9.49993 14.5298C9.95336 14.5298 10.3209 14.1622 10.3209 13.7088L10.3209 9.6036L14.4261 9.6036C14.8796 9.6036 15.2472 9.23602 15.2472 8.78258C15.2472 8.32915 14.8796 7.96156 14.4261 7.96156L10.3209 7.96156L10.3209 3.85652C10.3209 3.40308 9.95336 3.0355 9.49992 3.0355C9.04648 3.0355 8.6789 3.40308 8.6789 3.85652L8.6789 7.96156L4.5739 7.96156Z" fill="white"/>
</g>
</svg>
